# xmcd
#
# Track frame offsets: 
#        150
#        183436
#        191747
#        206441
#        225286
#        241073
#        243636
#        244122
#        257915
#        274590
#        285808
#        297962
#
# Disc length: 4169 seconds
#
# Revision: 0
# Processed by: cddbd v1.5.2PL0 Copyright (c) Steve Scherf et al.
# Submitted via: ExactAudioCopy v0.95b3
#
DISCID=a510470c
DTITLE=Jimi Hendrix  - Moonbeams and Fairytales - Disc 07
DYEAR=1900
DGENRE=
TTITLE0=Interview (Christine Charles)
TTITLE1=Introduction
TTITLE2=Foxy Lady
TTITLE3=Hey Joe
TTITLE4=Stone Free
TTITLE5=MC Chatter
TTITLE6=MC Chatter
TTITLE7=Fire
TTITLE8=Purple Haze
TTITLE9=Killing Floor
TTITLE10=Fire
TTITLE11=Purple Haze
EXTD=
EXTT0=
EXTT1=
EXTT2=
EXTT3=
EXTT4=
EXTT5=
EXTT6=
EXTT7=
EXTT8=
EXTT9=
EXTT10=
EXTT11=
PLAYORDER=
